<?xml version="1.0" encoding="UTF-8" standalone="no"?>
<!-- Created with Inkscape (http://www.inkscape.org/) -->

<svg
   width="264.58331mm"
   height="264.58331mm"
   viewBox="0 0 264.58331 264.58331"
   version="1.1"
   id="svg5"
   inkscape:version="1.1 (c4e8f9ed74, 2021-05-24)"
   sodipodi:docname="discord.gg(JwM6zBszKr).svg"
   xmlns:inkscape="http://www.inkscape.org/namespaces/inkscape"
   xmlns:sodipodi="http://sodipodi.sourceforge.net/DTD/sodipodi-0.dtd"
   xmlns="http://www.w3.org/2000/svg"
   xmlns:svg="http://www.w3.org/2000/svg">
  <sodipodi:namedview
     id="namedview7"
     pagecolor="#ffffff"
     bordercolor="#111111"
     borderopacity="1"
     inkscape:pageshadow="0"
     inkscape:pageopacity="0"
     inkscape:pagecheckerboard="1"
     inkscape:document-units="mm"
     showgrid="false"
     inkscape:zoom="0.77771465"
     inkscape:cx="523.32819"
     inkscape:cy="558.0453"
     inkscape:window-width="2560"
     inkscape:window-height="1369"
     inkscape:window-x="1280"
     inkscape:window-y="0"
     inkscape:window-maximized="1"
     inkscape:current-layer="layer1" />
  <defs
     id="defs2" />
  <g
     inkscape:label="Layer 1"
     inkscape:groupmode="layer"
     id="layer1"
     transform="translate(33.230367,-0.72321251)">
    <path
       style="fill:#000000;stroke-width:0.352778"
       d="M -33.230367,228.26488 V 191.22321 H 3.8112928 40.852963 v 37.04167 37.04166 H 3.8112928 -33.230367 Z m 63.5,0 V 201.80654 H 3.8112928 -22.647037 v 26.45834 26.45833 H 3.8112928 30.269633 Z m -42.33334,0 v -15.875 H 3.8112928 19.686293 v 15.875 15.875 H 3.8112928 -12.063707 Z m 63.500003,26.45833 v -10.58333 h 5.291667 5.291666 v -5.29167 -5.29167 h -5.291666 -5.291667 v -5.29166 -5.29167 h 5.291667 5.291666 v -5.29167 -5.29166 h 5.291667 5.291667 v -5.29167 -5.29167 h 5.291666 5.291667 v 5.29167 5.29167 h 15.874997 15.874997 v -5.29167 -5.29167 h 5.29167 5.29167 v -5.29166 -5.29167 h -5.29167 -5.29167 v -5.29167 -5.29166 h -5.29166 -5.29167 v 10.58333 10.58333 h -5.291667 -5.29166 v -5.29166 -5.29167 h -5.29167 -5.291667 v -5.29167 -5.29166 h 10.583337 10.583327 v -15.875 -15.875 h -5.291667 -5.29166 v 5.29166 5.29167 H 83.186296 72.602963 v 5.29167 5.29166 H 62.019629 51.436296 v 5.29167 5.29167 h 5.291667 5.291666 v 10.58333 10.58333 H 56.727963 51.436296 V 191.22321 180.63988 H 40.852963 30.269633 v -5.29167 -5.29167 h 5.29166 5.29167 v -5.29166 -5.29167 h -15.875 -15.8750002 v -10.58333 -10.58334 h -5.29167 -5.29166 v -5.29166 -5.29167 h 5.29166 5.29167 v -5.29167 -5.29166 H -1.4803672 -12.063707 V 106.55654 95.973212 h -5.29166 -5.29167 v 10.583328 10.58334 h -5.29167 -5.29166 v -15.875 -15.875001 h 10.58333 10.58333 v 5.291663 5.29167 h 5.2916698 5.29167 v -5.29167 -5.291663 h 5.29166 5.29167 v 5.291663 5.29167 h 5.2916702 5.29166 v 15.874998 15.875 h 10.58334 10.58333 v 5.29167 5.29166 h 5.291666 5.291667 v 5.29167 5.29167 h -5.291667 -5.291666 v 5.29166 5.29167 H 51.436296 62.019629 V 148.88988 138.30654 H 72.602963 83.186296 V 127.72321 117.13988 H 56.727963 30.269633 v -5.29167 -5.29167 h 5.29166 5.29167 v -5.29166 -5.291668 h -5.29167 -5.29166 v -5.29167 -5.291663 h 10.58333 10.583333 V 64.223213 43.056546 h 5.291667 5.291666 V 37.764879 32.473213 H 56.727963 51.436296 V 21.889879 11.306546 h 5.291667 5.291666 V 6.0148785 0.72321251 H 72.602963 83.186296 V 6.0148785 11.306546 h 5.291667 5.29167 V 6.0148785 0.72321251 h 5.29166 5.291667 V 6.0148785 11.306546 h 5.29167 5.29166 V 6.0148785 0.72321251 h 10.58334 10.58333 V 21.889879 43.056546 h 5.29167 5.29166 v 5.291667 5.291666 h -5.29166 -5.29167 v 5.291667 5.291667 h 5.29167 5.29166 v 5.291666 5.291667 h -5.29166 -5.29167 v -5.291667 -5.291666 h -5.29167 -5.29166 v 10.583333 10.583333 h 10.58333 10.58333 v 5.291663 5.29167 h 5.29167 5.29167 v -5.29167 -5.291663 h 15.875 15.875 v 5.291663 5.29167 h -10.58334 -10.58333 v 5.291668 5.29166 h 10.58333 10.58334 v 10.58334 10.58333 h 5.29166 5.29167 v 5.29167 5.29166 h 5.29167 5.29166 v -5.29166 -5.29167 h 10.58334 10.58333 v 15.875 15.875 h -5.29167 -5.29166 v 5.29167 5.29166 h -5.29167 -5.29167 v 5.29167 5.29167 h -5.29166 -5.29167 v 10.58333 10.58333 h 5.29167 5.29166 v -5.29166 -5.29167 h 5.29167 5.29167 v -5.29167 -5.29166 h 5.29166 5.29167 v 10.58333 10.58333 h -10.58333 -10.58334 v 5.29167 5.29167 h -5.29166 -5.29167 v 5.29166 5.29167 h 5.29167 5.29166 v 10.58333 10.58334 h -5.29166 -5.29167 v 5.29166 5.29167 h -5.29167 -5.29166 v -5.29167 -5.29166 h -10.58334 -10.58333 v -10.58334 -10.58333 h -10.58333 -10.58334 v 15.875 15.875 h 5.29167 5.29167 v 5.29167 5.29166 h -15.875 -15.875 v -5.29166 -5.29167 h -5.29167 -5.29167 v 5.29167 5.29166 h -5.29166 -5.29167 v -10.58333 -10.58333 h -5.291667 -5.29166 v 10.58333 10.58333 h -5.29167 -5.291667 v -5.29166 -5.29167 h -5.291667 -5.291666 v -5.29167 -5.29166 h -5.291667 -5.291667 v 10.58333 10.58333 h -5.291666 -5.291667 z m 42.333337,-15.875 v -5.29167 h -5.29167 -5.291667 v -5.29166 -5.29167 H 72.602963 62.019629 v 5.29167 5.29166 h 5.291667 5.291667 v 5.29167 5.29167 h 10.583333 10.583337 z m 31.749997,0 v -5.29167 h 5.29166 5.29167 v -15.875 -15.875 h -5.29167 -5.29166 v 5.29167 5.29167 h -5.29167 -5.29167 v 5.29166 5.29167 h 5.29167 5.29167 v 5.29167 5.29166 h -10.58334 -10.58333 v 5.29167 5.29167 h 10.58333 10.58334 z m 74.08333,0 v -5.29167 h -5.29167 -5.29166 v 5.29167 5.29167 h 5.29166 5.29167 z m -21.16667,-42.33333 v -15.875 h -15.875 -15.875 v 15.875 15.875 h 15.875 15.875 z m -21.16666,0 v -5.29167 h 5.29166 5.29167 v 5.29167 5.29166 h -5.29167 -5.29166 z m -21.16667,-15.875 v -10.58334 h 10.58333 10.58334 v -5.29166 -5.29167 h -10.58334 -10.58333 v -5.29167 -5.29166 h 10.58333 10.58334 v -5.29167 -5.29167 h -10.58334 -10.58333 v -5.29166 -5.29167 h -10.58333 -10.58334 v 5.29167 5.29166 h -5.29166 -5.29167 v -10.58333 -10.58333 h 5.29167 5.29166 v -5.29167 -5.29167 h 5.29167 5.29167 v 5.29167 5.29167 h 15.875 15.875 v 5.29166 5.29167 h 5.29166 5.29167 v 5.29167 5.29166 h 5.29167 5.29166 v 5.29167 5.29167 h 5.29167 5.29167 v 10.58333 10.58333 h 10.58333 10.58333 v -5.29166 -5.29167 h 5.29167 5.29167 v -10.58333 -10.58334 h -5.29167 -5.29167 v 10.58334 10.58333 h -5.29166 -5.29167 v -5.29167 -5.29166 h -5.29167 -5.29166 v -10.58334 -10.58333 h -5.29167 -5.29167 v -5.29167 -5.29166 h -5.29166 -5.29167 v -5.29167 -5.29167 h -10.58333 -10.58334 v -5.29166 -5.291668 h -15.875 -15.875 v -15.874999 -15.875 h 5.29167 5.29167 v -5.291667 -5.291667 h -5.29167 -5.29167 v -5.291666 -5.291667 h 5.29167 5.29167 v -5.291667 -5.291666 h -5.29167 -5.29167 v -5.291667 -5.291667 h -5.29166 -5.29167 v -5.291666 -5.291667 h -5.291667 -5.29166 v 5.291667 5.291666 h -5.29167 -5.291667 V 16.598213 11.306546 H 72.602963 62.019629 v 5.291667 5.291666 h 10.583334 10.583333 v 5.291667 5.291667 h 5.291667 5.29167 v -5.291667 -5.291667 h 5.29166 5.291667 v 10.583334 10.583333 h -5.291667 -5.29166 v 5.291667 5.291666 h -5.29167 -5.291667 V 48.348213 43.056546 H 72.602963 62.019629 v 5.291667 5.291666 h 5.291667 5.291667 v 5.291667 5.291667 h -5.291667 -5.291667 v 5.291666 5.291667 h 5.291667 5.291667 v 5.291667 5.291666 H 62.019629 51.436296 v 5.291663 5.29167 h 5.291667 5.291666 v 5.291668 5.29166 h 5.291667 5.291667 V 95.973212 85.389879 h 5.291666 5.291667 v 5.291663 5.29167 h 5.291667 5.29167 v -5.29167 -5.291663 h 5.29166 5.291667 v 15.875001 15.875 h -5.291667 -5.29166 v -5.29167 -5.29167 h -5.29167 -5.291667 v 5.29167 5.29167 h 5.291667 5.29167 v 10.58333 10.58333 h -5.29167 -5.291667 v 5.29167 5.29167 h 5.291667 5.29167 v -5.29167 -5.29167 h 5.29166 5.291667 v 5.29167 5.29167 h 5.29167 5.29166 v -5.29167 -5.29167 h 5.29167 5.29167 v 15.875 15.875 h -5.29167 -5.29167 v 5.29167 5.29167 h 5.29167 5.29167 v 5.29166 5.29167 h 5.29166 5.29167 z M 72.602963,69.514879 v -5.291666 h 5.291666 5.291667 v 5.291666 5.291667 h -5.291667 -5.291666 z m 21.16667,-5.291666 V 53.639879 h 5.29166 5.291667 v 10.583334 10.583333 h -5.291667 -5.29166 z M 178.43629,164.76488 v -5.29167 h -5.29166 -5.29167 v 5.29167 5.29166 h 5.29167 5.29166 z M 40.852963,143.59821 v -5.29167 h -5.29167 -5.29166 v 5.29167 5.29167 h 5.29166 5.29167 z M 167.85296,260.01488 v -5.29167 h 5.29167 5.29166 v 5.29167 5.29166 h -5.29166 -5.29167 z m 42.33333,0 v -5.29167 h 10.58334 10.58333 v 5.29167 5.29166 h -10.58333 -10.58334 z m 10.58334,-21.16667 v -5.29167 h 5.29166 5.29167 v 5.29167 5.29167 h -5.29167 -5.29166 z m -253.999997,-63.5 v -5.29167 h 5.29166 5.29167 v -5.29166 -5.29167 h -5.29167 -5.29166 v -5.29167 -5.29166 h 5.29166 5.29167 v -5.29167 -5.29167 h -5.29167 -5.29166 v -5.29166 -5.29167 h 10.58333 10.58333 v 10.58333 10.58334 h 5.2916698 5.29167 v 5.29166 5.29167 h -5.29167 -5.2916698 v 10.58333 10.58334 h -10.58333 -10.58333 z m 21.16666,-21.16667 v -5.29166 h -5.29166 -5.29167 v 5.29166 5.29167 h 5.29167 5.29166 z m 10.5833398,21.16667 v -5.29167 h 5.29166 5.29167 v 5.29167 5.29167 h -5.29167 -5.29166 z m 211.6666572,-63.5 v -5.29167 h 5.29167 5.29167 v -5.29166 -5.291668 h -10.58334 -10.58333 v -5.29167 -5.291663 h 10.58333 10.58334 v 5.291663 5.29167 h 5.29166 5.29167 v 10.583328 10.58334 H 220.76963 210.18629 Z M -33.230367,37.764879 V 0.72321251 H 3.8112928 40.852963 V 37.764879 74.806546 H 3.8112928 -33.230367 Z m 63.5,0 V 11.306546 H 3.8112928 -22.647037 V 37.764879 64.223213 H 3.8112928 30.269633 Z m -42.33334,0 v -15.875 H 3.8112928 19.686293 v 15.875 15.875 H 3.8112928 -12.063707 Z m 169.333337,0 V 0.72321251 h 37.04166 37.04167 V 37.764879 74.806546 h -37.04167 -37.04166 z m 63.5,0 V 11.306546 h -26.45834 -26.45833 v 26.458333 26.458334 h 26.45833 26.45834 z m -42.33334,0 v -15.875 h 15.875 15.875 v 15.875 15.875 h -15.875 -15.875 z"
       id="path836" />
  </g>
</svg>
